<svg xmlns="http://www.w3.org/2000/svg" width="50" height="50" fill="none">
  <path fill="url(#a)" fill-rule="evenodd" d="M31.223 8.406a6.228 6.228 0 0 1 5.87 4.148H18.777a10.37 10.37 0 0 0-10.37 10.37v10.019a6.224 6.224 0 0 1-4.148-5.87V14.629a6.222 6.222 0 0 1 6.222-6.223h20.74Zm8.296 8.296h-20.74a6.222 6.222 0 0 0-6.223 6.223v12.444a6.222 6.222 0 0 0 6.222 6.222H39.52a6.222 6.222 0 0 0 6.222-6.222V22.925a6.222 6.222 0 0 0-6.222-6.223Zm-6.222 12.445a4.148 4.148 0 1 1-8.296 0 4.148 4.148 0 0 1 8.296 0Z" clip-rule="evenodd"/>
  <defs>
    <linearGradient id="a" x1="11.822" x2="58.184" y1="57.838" y2="12.711" gradientUnits="userSpaceOnUse">
      <stop stop-color="#982DEC"/>
      <stop offset=".573" stop-color="#DC8DF8"/>
      <stop offset=".896" stop-color="#A9C4F3"/>
    </linearGradient>
  </defs>
</svg>
