<svg xmlns="http://www.w3.org/2000/svg" width="50" height="50" fill="none">
  <path fill="url(#a)" d="M39.934 15.666v-3.733a3.737 3.737 0 0 0-3.733-3.734H11.934a5.607 5.607 0 0 0-5.6 5.6v22.4c0 4.109 3.349 5.6 5.6 5.6h28a3.737 3.737 0 0 0 3.733-3.733V19.399a3.737 3.737 0 0 0-3.733-3.733Zm-3.733 16.8h-3.734v-7.467h3.734v7.467Zm-24.267-16.8a1.869 1.869 0 0 1 0-3.733h24.267v3.733H11.934Z"/>
  <defs>
    <linearGradient id="a" x1="13.139" x2="59.611" y1="58.249" y2="18.042" gradientUnits="userSpaceOnUse">
      <stop stop-color="#982DEC"/>
      <stop offset=".573" stop-color="#DC8DF8"/>
      <stop offset=".896" stop-color="#A9C4F3"/>
    </linearGradient>
  </defs>
</svg>
